<svg width="560" height="425" viewBox="0 0 560 425" fill="none" xmlns="http://www.w3.org/2000/svg">
<rect x="1.16138" y="1" width="558" height="423" fill="url(#paint0_linear_107_13)" fill-opacity="0.8"/>
<g opacity="0.3">
<path d="M209.559 215.789L504.559 103.789M274.367 54.9363L197.367 218.936M277.035 48.2386L502.035 104.239M277.256 56.359L485.256 251.359M202.972 217.227L483.972 250.227M500.41 105.786L482.41 249.786M351.809 161.213L128.809 113.213M270 52.2163L1 99.2163M344.363 162.504L451.363 381.504M190.367 226.513L262.367 381.513M188.406 228.811L158.406 397.811M493.15 256.164L180.15 424.164M250.735 34.1908L182.735 8.19083M481.497 84L426.497 1M366.44 133.563L406.44 15.5633M497.736 88.2566L539.736 72.2566M483.323 243.436L559.323 351.436M478.958 237.226L546.958 243.226" stroke="#303030"/>
<path d="M480.889 91.4703C480.651 97.496 478.958 103.374 475.955 108.603C472.953 113.832 468.729 118.256 463.646 121.496C458.562 124.737 452.77 126.698 446.764 127.212C440.759 127.726 434.718 126.778 429.158 124.448C426.55 123.355 424.077 121.965 421.787 120.306C417.411 117.145 413.768 113.075 411.109 108.376V108.372C408.273 103.345 406.641 97.7297 406.34 91.9658C406.04 86.2019 407.08 80.4469 409.378 75.1529C411.676 69.8588 415.17 65.17 419.585 61.4548C424 57.7396 429.216 55.0992 434.823 53.7411C440.43 52.3829 446.276 52.344 451.901 53.6275C457.525 54.9109 462.776 57.4817 467.24 61.1379C471.704 64.794 475.26 69.436 477.628 74.699C479.996 79.962 481.113 85.7027 480.889 91.47L480.889 91.4703Z" fill="#F3F3F3"/>
<path opacity="0.09" d="M480.889 91.4703C480.651 97.496 478.958 103.374 475.955 108.603C472.953 113.832 468.729 118.256 463.646 121.496C458.562 124.737 452.77 126.698 446.764 127.212C440.759 127.726 434.718 126.778 429.158 124.448C426.55 123.355 424.077 121.965 421.787 120.306C417.411 117.145 413.768 113.075 411.109 108.376V108.372C408.273 103.345 406.641 97.7297 406.34 91.9658C406.04 86.2019 407.08 80.4469 409.378 75.1529C411.676 69.8588 415.17 65.17 419.585 61.4548C424 57.7396 429.216 55.0992 434.823 53.7411C440.43 52.3829 446.276 52.344 451.901 53.6275C457.525 54.9109 462.776 57.4817 467.24 61.1379C471.704 64.794 475.26 69.436 477.628 74.699C479.996 79.962 481.113 85.7027 480.889 91.47L480.889 91.4703Z" fill="#138EFF"/>
<path d="M452.426 61.5941C452.426 61.5941 461.347 61.7034 458.271 74.0024L457.433 74.0434L455.733 74.1263" fill="#303030"/>
<path d="M442.465 86.9062C442.507 86.9024 442.671 94.5738 451.584 94.2515C457.755 94.0293 460.202 87.5838 460.343 87.5891C459.685 87.4225 458.576 87.1733 458.288 87.0052C457.339 86.447 456.161 85.8586 455.922 83.964C455.784 82.8721 456.304 77.334 456.253 76.2329L446.727 77.9751C446.769 80.2985 447.484 85.7083 444.21 86.5337C443.665 86.6704 443.079 86.7925 442.465 86.9062Z" fill="#E98862"/>
<path opacity="0.52" d="M446.344 84.417C446.511 83.9458 446.625 83.4577 446.685 82.9615C446.833 81.8297 446.857 80.6851 446.756 79.5482C448.685 79.3635 450.525 78.6411 452.064 77.463C452.215 78.1164 453.069 80.9865 452.777 81.5918C452.228 82.7366 449.782 84.5507 446.344 84.417Z" fill="#303030"/>
<path d="M448.507 83.0616C452.241 82.7943 456.746 80.5198 456.902 75.4573L457.044 70.8903C457.2 65.8287 454.668 61.6431 449.906 61.4957C445.142 61.3472 441.455 65.3412 441.298 70.4028L441.236 72.4248C441.226 73.1197 441.264 73.8144 441.349 74.5041C441.561 76.328 441.889 79.1011 443.09 80.9948C444.223 82.7824 446.121 83.2318 448.507 83.0616Z" fill="#E98862"/>
<path d="M456.559 76.9912C458.006 77.0358 459.228 75.5227 459.273 74.0746C459.318 72.6265 458.168 71.7912 456.721 71.7464L455.945 72.6936L455.314 76.9526L456.559 76.9912Z" fill="#E98862"/>
<path d="M441.543 76.0327C441.805 76.3429 442.14 76.5828 442.518 76.7304C442.895 76.8781 443.304 76.9288 443.707 76.8781C444.568 76.7697 445.139 77.1231 445.857 77.0522C446.461 76.9927 446.565 76.7138 447.595 76.6529C451.57 76.4174 454.552 76.1667 454.746 71.1766L457.275 68.9289C457.275 68.9289 458.406 82.7569 450.93 84.595C446.336 85.7237 442.028 85.3111 441.473 80.9948C441.023 77.4876 441.543 76.0327 441.543 76.0327Z" fill="#303030"/>
<path d="M443.427 73.1448C443.751 73.1448 444.014 72.8819 444.014 72.5576C444.014 72.2333 443.751 71.9703 443.427 71.9703C443.102 71.9703 442.84 72.2333 442.84 72.5576C442.84 72.8819 443.102 73.1448 443.427 73.1448Z" fill="#303030"/>
<path d="M448.671 73.0355C448.995 73.0355 449.258 72.7726 449.258 72.4483C449.258 72.1239 448.995 71.861 448.671 71.861C448.346 71.861 448.084 72.1239 448.084 72.4483C448.084 72.7726 448.346 73.0355 448.671 73.0355Z" fill="#303030"/>
<path d="M455.16 74.6369C455.16 74.6369 454.802 67.4645 452.639 66.9824C451.198 66.6613 447.654 68.6497 444.417 67.9707C443.001 67.6736 441.645 68.0004 441.496 68.6699C441.436 68.9349 440.316 66.585 442.594 63.7256C444.408 61.4491 450.307 60.8087 452.93 61.6136C460.196 63.8432 457.014 72.0675 457.014 72.0675L456.643 74.5311L455.16 74.6369Z" fill="#303030"/>
<path d="M458.462 68.8535C460.601 68.8535 462.335 67.119 462.335 64.9794C462.335 62.8399 460.601 61.1054 458.462 61.1054C456.324 61.1054 454.59 62.8399 454.59 64.9794C454.59 67.119 456.324 68.8535 458.462 68.8535Z" fill="#303030"/>
<g opacity="0.52">
<path d="M445.928 76.8217H445.919C445.453 76.8083 444.672 76.734 444.681 76.385C444.689 76.0957 445.569 72.9951 445.67 72.6423C445.678 72.6119 445.699 72.5863 445.726 72.5709C445.754 72.5556 445.786 72.5518 445.817 72.5604C445.847 72.5691 445.873 72.5894 445.888 72.6169C445.903 72.6445 445.907 72.677 445.898 72.7073C445.508 74.0805 444.924 76.1949 444.919 76.3906C444.962 76.4744 445.443 76.5689 445.926 76.5828C445.957 76.5825 445.987 76.5947 446.01 76.6167C446.033 76.6387 446.045 76.6688 446.046 76.7003C446.046 76.7318 446.034 76.7622 446.012 76.7847C445.99 76.8073 445.96 76.8201 445.928 76.8205V76.8217Z" fill="#303030"/>
</g>
<path d="M444.508 70.5624C444.026 70.4196 443.515 70.4093 443.028 70.5327C442.788 70.5916 442.558 70.6864 442.346 70.8137C442.137 70.9385 441.944 71.0893 441.772 71.2625C441.742 71.2892 441.724 71.3267 441.722 71.3666C441.72 71.4066 441.733 71.4458 441.76 71.4756C441.787 71.5054 441.824 71.5234 441.864 71.5256C441.904 71.5278 441.943 71.5141 441.973 71.4874L441.982 71.4796C442.143 71.335 442.32 71.2112 442.511 71.111C442.7 71.0113 442.902 70.9406 443.111 70.9013C443.524 70.8205 443.951 70.8503 444.349 70.9877L444.364 70.9934C444.392 71.0043 444.422 71.0094 444.452 71.0086C444.482 71.0078 444.512 71.001 444.539 70.9885C444.567 70.9761 444.591 70.9584 444.612 70.9363C444.632 70.9143 444.648 70.8883 444.659 70.86C444.669 70.8318 444.674 70.8017 444.672 70.7716C444.671 70.7415 444.664 70.7119 444.651 70.6847C444.638 70.6575 444.62 70.6331 444.597 70.6129C444.575 70.5928 444.549 70.5773 444.52 70.5674L444.508 70.5624Z" fill="#303030"/>
<path d="M447.967 70.9883C448.349 70.8126 448.771 70.7414 449.19 70.7819C449.402 70.8005 449.61 70.8512 449.807 70.9325C450.007 71.0135 450.196 71.1194 450.369 71.2476L450.379 71.2542C450.411 71.2752 450.45 71.2831 450.488 71.2762C450.526 71.2693 450.56 71.2481 450.583 71.217C450.606 71.1859 450.616 71.1472 450.611 71.109C450.606 71.0707 450.587 71.0357 450.557 71.0112C450.369 70.8555 450.162 70.7242 449.942 70.6203C449.719 70.5142 449.481 70.4422 449.236 70.4067C448.739 70.3318 448.231 70.392 447.766 70.5811C447.711 70.6047 447.668 70.649 447.645 70.7042C447.623 70.7595 447.623 70.8214 447.646 70.8765C447.669 70.9315 447.712 70.9754 447.767 70.9985C447.822 71.0217 447.884 71.0223 447.94 71.0002L447.951 70.9955L447.967 70.9883Z" fill="#303030"/>
<path d="M471.747 106.062C471.415 108.57 471.091 112.014 470.802 115.576C469.671 116.78 468.462 117.908 467.182 118.952C466.369 119.613 465.53 120.242 464.664 120.837C459.984 124.034 454.638 126.124 449.032 126.95C443.425 127.775 437.705 127.315 432.302 125.604C432.228 122.295 432.128 117.833 432.028 113.744C431.914 109.028 431.799 104.805 431.736 103.418C431.481 97.9111 430.022 94.237 431.125 91.2327C431.454 90.3434 431.985 89.5421 432.674 88.8911C435.244 86.3748 441.627 86.4322 444.188 86.5317C444.232 86.5335 443.441 92.4449 451.865 92.3736C458.056 92.3228 458.521 87.088 458.521 87.088C458.521 87.088 461.572 87.4056 463.598 87.7576C466.912 88.3383 469.067 89.5544 470.743 91.3705C472.308 93.0639 473.231 94.8616 471.747 106.062Z" fill="#138EFF"/>
<path d="M422.224 87.1145L422.479 80.8068C422.485 80.6681 422.462 80.5297 422.411 80.4004C422.36 80.2711 422.283 80.1538 422.185 80.056C422.086 79.9582 421.969 79.882 421.839 79.8322C421.71 79.7825 421.571 79.7603 421.432 79.7671C421.177 79.7878 420.939 79.9025 420.763 80.0891C420.587 80.2757 420.487 80.5209 420.482 80.7771L420.428 82.1298L418.647 77.798C418.458 77.313 417.915 76.8389 417.385 77.0875C417.175 77.1698 416.999 77.3209 416.885 77.5162C416.772 77.7115 416.728 77.9394 416.761 78.1628C416.756 78.1634 416.751 78.1645 416.747 78.1661C416.743 78.168 416.74 78.1702 416.737 78.1726L416.445 77.4247C416.391 77.2861 416.306 77.1614 416.198 77.0596C416.089 76.9578 415.96 76.8816 415.818 76.8363C415.676 76.7911 415.526 76.7781 415.379 76.7982C415.232 76.8183 415.091 76.8711 414.966 76.9527C414.773 77.085 414.631 77.2797 414.564 77.5043C414.497 77.7288 414.509 77.9696 414.598 78.1863L414.723 78.5044C414.715 78.5123 414.709 78.5215 414.705 78.5314C414.571 78.3361 414.372 78.1947 414.144 78.1325C413.915 78.0703 413.672 78.0914 413.458 78.1919C413.226 78.3091 413.048 78.5093 412.957 78.7525C412.867 78.9957 412.871 79.264 412.97 79.504L413.279 80.2947C413.267 80.2866 413.253 80.2815 413.238 80.2798C413.224 80.2782 413.209 80.28 413.195 80.2852C413.179 80.2923 413.166 80.3038 413.156 80.3184C412.988 80.1774 412.779 80.0953 412.56 80.0849C412.342 80.0744 412.125 80.1361 411.945 80.2605C411.759 80.3951 411.623 80.5888 411.56 80.8102C411.497 81.0316 411.51 81.2678 411.598 81.4805L414.204 88.1518C414.569 89.085 415.204 89.8882 416.028 90.4581C416.851 91.0281 417.826 91.339 418.828 91.3509V91.3509C419.692 91.3611 420.525 91.0341 421.152 90.4393C421.778 89.8445 422.148 89.0288 422.183 88.1654L422.224 87.1145Z" fill="#E98862"/>
<g opacity="0.2">
<path d="M418.502 82.4595C418.479 82.4683 418.454 82.4678 418.432 82.4583C418.41 82.4487 418.392 82.4308 418.383 82.4084L416.696 78.2864C416.69 78.275 416.687 78.2627 416.687 78.2502C416.687 78.2377 416.689 78.2252 416.693 78.2135C416.698 78.2018 416.705 78.1912 416.714 78.1823C416.722 78.1733 416.733 78.1663 416.744 78.1615C416.756 78.1568 416.768 78.1545 416.781 78.1547C416.794 78.1549 416.806 78.1577 416.817 78.1628C416.829 78.168 416.839 78.1754 416.847 78.1846C416.856 78.1939 416.862 78.2047 416.867 78.2166L418.554 82.3386C418.558 82.3499 418.561 82.3619 418.561 82.374C418.561 82.3861 418.558 82.3981 418.554 82.4093C418.549 82.4205 418.542 82.4306 418.533 82.4391C418.525 82.4476 418.515 82.4544 418.503 82.4589L418.502 82.4595Z" fill="#303030"/>
</g>
<g opacity="0.2">
<path d="M416.705 83.2544C416.683 83.2632 416.658 83.2627 416.635 83.2531C416.613 83.2435 416.596 83.2255 416.587 83.203L414.704 78.6027C414.695 78.5803 414.695 78.5552 414.704 78.533C414.714 78.5108 414.732 78.4931 414.754 78.4839C414.776 78.4759 414.801 78.4766 414.823 78.4859C414.845 78.4952 414.863 78.5124 414.873 78.5341L416.756 83.1344C416.765 83.1571 416.765 83.1824 416.755 83.205C416.746 83.2275 416.728 83.2454 416.705 83.2547V83.2544Z" fill="#303030"/>
</g>
<g opacity="0.2">
<path d="M414.764 84.1262C414.742 84.135 414.717 84.1346 414.694 84.1249C414.672 84.1153 414.655 84.0973 414.646 84.0748L413.144 80.4055C413.134 80.3829 413.134 80.3575 413.144 80.335C413.153 80.3124 413.171 80.2946 413.194 80.2853C413.217 80.2761 413.242 80.2762 413.264 80.2856C413.287 80.2951 413.305 80.3131 413.314 80.3357L414.817 84.0042C414.826 84.0268 414.826 84.0522 414.817 84.0747C414.807 84.0973 414.789 84.1152 414.767 84.1245L414.764 84.1262Z" fill="#303030"/>
</g>
<path d="M443.095 97.0036L427.751 120.605C427.192 121.463 426.445 122.182 425.566 122.706C424.258 121.984 422.996 121.183 421.787 120.306C419.21 118.445 416.881 116.263 414.857 113.812L411.634 88.8115L424.533 86.7438L426.003 98.7776L431.897 89.7139L443.095 97.0036Z" fill="#138EFF"/>
<path d="M444.894 78.1093C446.302 78.2029 447.7 77.8244 448.869 77.0337C448.909 77.0065 448.957 76.9914 449.005 76.9902C449.054 76.989 449.102 77.0017 449.144 77.0268C449.186 77.052 449.22 77.0885 449.242 77.1322C449.264 77.1759 449.273 77.2249 449.268 77.2735C449.174 78.1052 448.763 79.6349 447.019 79.8298C445.892 79.9555 445.076 79.0902 444.665 78.5148C444.636 78.475 444.62 78.4279 444.617 78.379C444.615 78.3302 444.626 78.2816 444.65 78.239C444.674 78.1964 444.71 78.1616 444.753 78.1386C444.797 78.1156 444.845 78.1055 444.894 78.1093V78.1093Z" fill="#F3F3F3"/>
<path d="M475.908 108.714C473.64 112.625 470.684 116.094 467.182 118.952C466.369 119.613 465.53 120.242 464.664 120.837L458.671 98.0272L472.168 94.4755L475.908 108.714Z" fill="#138EFF"/>
<path d="M464.795 120.748C464.753 120.776 464.706 120.808 464.664 120.837C464.622 120.867 464.579 120.897 464.536 120.924L459.968 103.547L460.256 103.472L464.795 120.748Z" fill="#303030"/>
<path d="M432.065 114.818C432.027 114.817 431.992 114.802 431.966 114.775C431.94 114.749 431.924 114.714 431.922 114.677L431.628 108.201C431.626 108.162 431.64 108.123 431.667 108.094C431.693 108.065 431.73 108.048 431.77 108.046C431.809 108.044 431.847 108.058 431.877 108.085C431.906 108.111 431.923 108.148 431.925 108.188L432.219 114.663C432.221 114.703 432.207 114.741 432.18 114.77C432.154 114.799 432.117 114.817 432.078 114.818H432.065Z" fill="#303030"/>
<path d="M321.058 174.741C342.066 174.741 359.097 157.702 359.097 136.685C359.097 115.667 342.066 98.6293 321.058 98.6293C300.05 98.6293 283.019 115.667 283.019 136.685C283.019 157.702 300.05 174.741 321.058 174.741Z" fill="#F3F3F3"/>
<path opacity="0.09" d="M359.098 136.684C359.098 144.21 356.867 151.568 352.687 157.826C348.507 164.084 342.566 168.962 335.616 171.842C328.665 174.722 321.017 175.476 313.638 174.008C306.26 172.539 299.482 168.915 294.162 163.593C288.842 158.271 285.22 151.49 283.752 144.108C282.284 136.726 283.037 129.074 285.916 122.121C288.795 115.167 293.671 109.224 299.926 105.042C306.182 100.861 313.536 98.6287 321.059 98.6287C326.06 98.6102 331.014 99.5819 335.638 101.488C340.261 103.394 344.462 106.196 347.998 109.734C351.534 113.271 354.335 117.473 356.24 122.099C358.145 126.724 359.116 131.681 359.098 136.684V136.684Z" fill="#138EFF"/>
<path d="M304.22 114.239C304.22 114.239 303.838 119.983 302.545 122.068C298.826 128.068 297.749 134.818 301.473 138.346C305.198 141.873 328.954 141.922 330.754 133.81C332.268 126.981 329.017 126.247 328.226 120.613C327.868 118.064 326.883 112.719 326.883 112.719" fill="#303030"/>
<path d="M324.604 132.62C324.563 132.614 324.109 140.168 315.337 139.511C309.264 139.056 307.099 132.61 306.96 132.61C307.615 132.471 308.717 132.269 309.009 132.114C309.965 131.599 311.148 131.065 311.456 129.207C311.634 128.137 311.332 122.658 311.426 121.575L320.748 123.656C320.618 125.943 319.706 131.249 322.901 132.187C323.431 132.341 324.004 132.484 324.604 132.62Z" fill="#E98862"/>
<path opacity="0.5" d="M320.876 130.018C320.731 129.548 320.637 129.062 320.596 128.571C320.494 127.45 320.514 126.321 320.657 125.205C318.762 124.949 316.978 124.167 315.505 122.947C315.332 123.587 314.38 126.381 314.644 126.989C315.143 128.137 317.483 130.018 320.876 130.018Z" fill="#303030"/>
<path d="M319.671 127.665C315.996 128.021 311.241 126.55 310.256 121.654L309.367 117.236C308.382 112.34 310.154 107.853 314.762 106.925C319.37 105.997 323.613 109.272 324.598 114.169L324.992 116.125C325.37 118.004 326.228 127.03 319.671 127.665Z" fill="#E98862"/>
<path opacity="0.1" d="M317.335 121.25C317.94 121.178 318.387 120.76 318.334 120.316C318.281 119.872 317.748 119.57 317.143 119.643C316.538 119.715 316.091 120.133 316.144 120.577C316.197 121.021 316.73 121.322 317.335 121.25Z" fill="#303030"/>
<path opacity="0.1" d="M323.726 119.475C323.78 119.918 324.313 120.217 324.918 120.147C325.022 120.135 325.125 120.111 325.225 120.078C325.253 119.549 325.255 119.041 325.239 118.57C325.071 118.528 324.897 118.518 324.725 118.54C324.12 118.611 323.673 119.03 323.726 119.475Z" fill="#303030"/>
<path opacity="0.5" d="M321.053 120.844H321.062C321.249 120.805 321.433 120.755 321.615 120.696C321.885 120.607 322.238 120.457 322.19 120.212C322.134 119.933 320.765 117.077 320.608 116.752C320.594 116.725 320.569 116.705 320.541 116.696C320.512 116.686 320.48 116.689 320.453 116.702C320.425 116.715 320.404 116.738 320.393 116.766C320.382 116.795 320.383 116.826 320.395 116.854C320.979 118.072 321.92 120.071 321.957 120.259C321.928 120.346 321.479 120.517 321.015 120.611C320.986 120.618 320.96 120.635 320.943 120.66C320.927 120.685 320.92 120.716 320.925 120.746C320.93 120.775 320.946 120.802 320.97 120.821C320.993 120.839 321.023 120.848 321.053 120.845V120.844Z" fill="#303030"/>
<path d="M305.691 118.822L309.822 118.014C312.942 116.707 313.828 111.268 313.828 111.268C313.828 111.268 317.679 114.937 326.883 112.718C326.883 112.718 324.884 99.8636 311.293 103.766C306.911 105.024 303.806 109.493 304.268 115.411C304.591 119.56 305.691 118.822 305.691 118.822Z" fill="#303030"/>
<path d="M310.842 123.088C309.442 123.37 308.005 122.1 307.725 120.698C307.444 119.297 308.422 118.296 309.823 118.014L310.733 118.808L312.047 122.845L310.842 123.088Z" fill="#E98862"/>
<path d="M321.602 114.474C321.952 114.226 322.362 114.075 322.789 114.037C323.004 114.017 323.22 114.029 323.431 114.073C323.644 114.116 323.851 114.186 324.047 114.281L324.053 114.283C324.074 114.292 324.098 114.292 324.12 114.284C324.142 114.275 324.159 114.259 324.169 114.238C324.179 114.217 324.18 114.193 324.173 114.171C324.166 114.148 324.151 114.13 324.13 114.119C323.923 114.009 323.703 113.927 323.475 113.872C323.245 113.816 323.009 113.795 322.773 113.81C322.296 113.836 321.835 113.99 321.437 114.256C321.422 114.265 321.408 114.278 321.398 114.293C321.388 114.308 321.38 114.325 321.377 114.343C321.373 114.361 321.373 114.38 321.377 114.397C321.38 114.415 321.387 114.432 321.398 114.447C321.408 114.463 321.421 114.475 321.436 114.485C321.452 114.495 321.469 114.502 321.487 114.505C321.505 114.508 321.523 114.508 321.541 114.503C321.559 114.499 321.576 114.492 321.591 114.481L321.594 114.479L321.602 114.474Z" fill="#303030"/>
<path d="M317.828 114.996C317.359 114.902 316.873 114.937 316.422 115.095C316.199 115.172 315.989 115.282 315.798 115.422C315.609 115.559 315.437 115.72 315.287 115.901C315.272 115.919 315.265 115.942 315.266 115.965C315.268 115.989 315.278 116.011 315.296 116.027C315.313 116.042 315.336 116.051 315.359 116.05C315.383 116.05 315.405 116.04 315.422 116.023L315.426 116.018C315.57 115.855 315.735 115.711 315.915 115.59C316.093 115.468 316.288 115.374 316.495 115.311C316.904 115.183 317.34 115.165 317.759 115.26L317.769 115.262C317.787 115.267 317.805 115.268 317.823 115.265C317.841 115.263 317.858 115.257 317.874 115.247C317.89 115.238 317.903 115.226 317.914 115.211C317.925 115.197 317.932 115.18 317.937 115.162C317.941 115.145 317.942 115.126 317.939 115.108C317.936 115.09 317.929 115.073 317.92 115.058C317.91 115.043 317.898 115.029 317.883 115.019C317.868 115.008 317.851 115.001 317.833 114.997L317.828 114.996Z" fill="#303030"/>
<path d="M309.825 117.947C312.602 116.913 313.523 114.994 313.807 113.566C313.991 112.614 313.973 111.634 313.757 110.689L313.67 110.712C313.884 111.645 313.901 112.613 313.719 113.552C313.439 114.956 312.531 116.844 309.793 117.863L309.825 117.947Z" fill="#303030"/>
<path d="M344.935 131.115L346.598 125.471C346.634 125.347 346.696 125.232 346.78 125.134C346.863 125.035 346.966 124.955 347.082 124.898C347.198 124.841 347.325 124.809 347.454 124.804C347.583 124.799 347.712 124.821 347.832 124.868C348.051 124.963 348.227 125.135 348.327 125.352C348.426 125.57 348.441 125.816 348.369 126.043L348.013 127.254L350.879 123.963C351.191 123.591 351.812 123.335 352.205 123.713C352.366 123.849 352.476 124.035 352.518 124.241C352.559 124.447 352.53 124.662 352.434 124.849C352.438 124.851 352.442 124.854 352.446 124.856C352.449 124.859 352.451 124.862 352.453 124.865L352.934 124.292C353.023 124.186 353.135 124.101 353.261 124.044C353.387 123.987 353.525 123.958 353.663 123.961C353.802 123.963 353.938 123.997 354.062 124.058C354.186 124.12 354.295 124.209 354.38 124.318C354.511 124.493 354.578 124.707 354.57 124.925C354.562 125.143 354.479 125.352 354.336 125.517L354.131 125.761C354.136 125.77 354.138 125.78 354.139 125.79C354.315 125.658 354.533 125.593 354.754 125.606C354.974 125.62 355.182 125.711 355.342 125.864C355.511 126.037 355.609 126.267 355.616 126.509C355.623 126.75 355.539 126.986 355.38 127.168L354.871 127.773C354.884 127.77 354.898 127.769 354.911 127.772C354.924 127.775 354.937 127.781 354.948 127.79C354.96 127.801 354.968 127.815 354.972 127.831C355.162 127.757 355.372 127.748 355.568 127.804C355.764 127.861 355.936 127.981 356.058 128.145C356.182 128.319 356.244 128.531 356.233 128.745C356.223 128.959 356.14 129.164 355.999 129.325L351.704 134.434C351.103 135.149 350.303 135.667 349.405 135.924C348.508 136.18 347.554 136.163 346.667 135.873V135.873C345.902 135.624 345.264 135.086 344.889 134.374C344.514 133.661 344.431 132.831 344.659 132.059L344.935 131.115Z" fill="#E98862"/>
<g opacity="0.2">
<path d="M349.612 128.122C349.629 128.135 349.651 128.142 349.673 128.14C349.695 128.139 349.716 128.128 349.731 128.112L352.452 124.979C352.467 124.962 352.475 124.939 352.473 124.916C352.471 124.894 352.461 124.873 352.444 124.858C352.426 124.843 352.404 124.835 352.381 124.837C352.359 124.838 352.337 124.849 352.322 124.866L349.601 127.999C349.594 128.007 349.588 128.017 349.584 128.028C349.581 128.039 349.579 128.05 349.58 128.061C349.581 128.072 349.584 128.083 349.589 128.094C349.594 128.104 349.601 128.113 349.61 128.12L349.612 128.122Z" fill="#303030"/>
</g>
<g opacity="0.2">
<path d="M350.96 129.36C350.977 129.374 350.999 129.381 351.021 129.379C351.044 129.377 351.064 129.367 351.079 129.35L354.116 125.854C354.123 125.846 354.129 125.836 354.132 125.825C354.136 125.814 354.137 125.803 354.137 125.792C354.136 125.781 354.133 125.77 354.128 125.759C354.123 125.749 354.116 125.74 354.107 125.733C354.09 125.719 354.067 125.712 354.045 125.713C354.023 125.715 354.001 125.725 353.986 125.742L350.951 129.238C350.944 129.246 350.938 129.256 350.934 129.267C350.931 129.278 350.929 129.289 350.93 129.3C350.931 129.311 350.934 129.322 350.939 129.333C350.944 129.343 350.951 129.352 350.96 129.359L350.96 129.36Z" fill="#303030"/>
</g>
<g opacity="0.2">
<path d="M352.412 130.711C352.429 130.725 352.451 130.731 352.474 130.73C352.496 130.728 352.516 130.717 352.531 130.701L354.954 127.912C354.967 127.895 354.974 127.873 354.971 127.851C354.969 127.829 354.959 127.809 354.942 127.794C354.926 127.78 354.904 127.772 354.882 127.773C354.86 127.774 354.839 127.783 354.824 127.799L352.401 130.588C352.394 130.597 352.388 130.607 352.385 130.617C352.381 130.628 352.38 130.639 352.38 130.651C352.381 130.662 352.384 130.673 352.389 130.683C352.394 130.693 352.401 130.702 352.41 130.709L352.412 130.711Z" fill="#303030"/>
</g>
<path d="M355.054 133.579L348.626 162.754C348.611 162.82 348.596 162.888 348.578 162.953C347.135 164.465 345.571 165.856 343.902 167.115C343.567 167.364 343.231 167.611 342.887 167.849C342.674 167.872 342.46 167.884 342.245 167.884C341.1 167.884 339.974 167.582 338.982 167.009C337.99 166.436 337.165 165.612 336.592 164.62L324.341 143.413L335.654 136.875L339.487 143.511L342.296 130.765L355.054 133.579Z" fill="#82D56E"/>
<path d="M335.271 146.88C335.232 147.343 335.155 148.17 335.048 149.257C334.514 154.814 333.264 167.201 332.685 172.925C325.37 175.264 317.521 175.344 310.161 173.154H310.158C304.722 171.526 299.72 168.7 295.52 164.884C295.544 159.766 295.47 154.009 295.125 150.308C294.095 139.249 295.069 137.518 296.669 135.917C296.8 135.786 296.936 135.658 297.073 135.533C298.727 134.03 300.802 133.05 303.828 132.64C305.829 132.37 308.84 132.174 308.84 132.174C308.84 132.174 309.095 137.336 315.173 137.621C323.448 138.011 322.895 132.174 322.937 132.174C325.018 132.174 329.65 132.304 332.572 133.793C332.575 133.793 332.575 133.793 332.578 133.796C333.166 134.082 333.701 134.467 334.16 134.933C337.507 138.48 335.856 139.997 335.271 146.88Z" fill="#82D56E"/>
<path d="M322.285 121.809C321.091 122.417 319.729 122.609 318.414 122.355C318.368 122.347 318.321 122.351 318.278 122.368C318.235 122.386 318.198 122.415 318.17 122.452C318.143 122.49 318.127 122.534 318.125 122.581C318.122 122.627 318.132 122.673 318.155 122.714C318.548 123.405 319.477 124.587 321.073 124.105C322.103 123.794 322.493 122.734 322.637 122.078C322.647 122.032 322.644 121.985 322.628 121.941C322.612 121.898 322.584 121.859 322.547 121.831C322.51 121.803 322.466 121.786 322.419 121.782C322.373 121.778 322.326 121.788 322.285 121.809Z" fill="#F3F3F3"/>
<path d="M322.36 116.496C322.679 116.496 322.937 116.238 322.937 115.919C322.937 115.601 322.679 115.342 322.36 115.342C322.042 115.342 321.783 115.601 321.783 115.919C321.783 116.238 322.042 116.496 322.36 116.496Z" fill="#303030"/>
<path d="M316.816 117.468C317.134 117.468 317.392 117.209 317.392 116.89C317.392 116.572 317.134 116.313 316.816 116.313C316.497 116.313 316.239 116.572 316.239 116.89C316.239 117.209 316.497 117.468 316.816 117.468Z" fill="#303030"/>
<path d="M333.995 159.34C333.991 159.34 333.987 159.34 333.984 159.34C333.96 159.337 333.939 159.324 333.925 159.305C333.911 159.287 333.904 159.263 333.908 159.239L334.928 148.959C334.929 148.947 334.933 148.936 334.939 148.926C334.944 148.916 334.952 148.907 334.962 148.9C334.971 148.892 334.982 148.887 334.993 148.884C335.005 148.882 335.017 148.881 335.028 148.883C335.052 148.886 335.073 148.899 335.087 148.917C335.101 148.936 335.107 148.96 335.104 148.983L334.084 159.264C334.081 159.285 334.07 159.305 334.054 159.319C334.038 159.333 334.017 159.34 333.995 159.34V159.34Z" fill="#303030"/>
<path d="M327.822 158.845L333.396 156.354C333.519 156.3 333.651 156.271 333.785 156.271C333.919 156.27 334.052 156.297 334.174 156.351C334.297 156.404 334.408 156.483 334.499 156.581C334.589 156.68 334.659 156.796 334.703 156.923C334.776 157.159 334.759 157.415 334.655 157.64C334.55 157.864 334.366 158.042 334.138 158.139L332.943 158.674L337.473 158.72C337.977 158.717 338.597 159.035 338.564 159.6C338.565 159.819 338.492 160.031 338.358 160.203C338.223 160.375 338.034 160.496 337.821 160.547C337.823 160.551 337.823 160.556 337.823 160.561C337.823 160.565 337.822 160.568 337.821 160.572L338.598 160.567C338.742 160.566 338.884 160.597 339.014 160.658C339.144 160.719 339.259 160.808 339.35 160.919C339.442 161.03 339.507 161.16 339.542 161.299C339.577 161.439 339.58 161.584 339.552 161.725C339.502 161.946 339.378 162.144 339.201 162.284C339.023 162.425 338.802 162.5 338.576 162.497L338.245 162.5C338.241 162.509 338.235 162.518 338.227 162.526C338.451 162.576 338.65 162.704 338.788 162.887C338.925 163.071 338.994 163.297 338.98 163.526C338.958 163.776 338.842 164.008 338.656 164.177C338.47 164.345 338.227 164.437 337.977 164.435L337.156 164.44C337.167 164.448 337.177 164.459 337.184 164.472C337.19 164.484 337.194 164.498 337.194 164.513C337.193 164.529 337.188 164.546 337.178 164.559C337.365 164.66 337.514 164.819 337.602 165.012C337.69 165.205 337.712 165.422 337.664 165.629C337.61 165.845 337.485 166.036 337.309 166.172C337.133 166.308 336.916 166.381 336.693 166.378L329.766 166.428C328.797 166.434 327.848 166.152 327.041 165.615C326.234 165.079 325.605 164.314 325.235 163.418V163.418C324.916 162.645 324.911 161.779 325.22 161.002C325.53 160.225 326.13 159.6 326.893 159.259L327.822 158.845Z" fill="#E98862"/>
<g opacity="0.2">
<path d="M333.338 160.522C333.338 160.546 333.347 160.569 333.364 160.585C333.38 160.602 333.403 160.611 333.427 160.611L337.734 160.65C337.758 160.651 337.781 160.641 337.798 160.625C337.814 160.608 337.824 160.586 337.824 160.562C337.824 160.538 337.815 160.516 337.799 160.499C337.782 160.482 337.759 160.472 337.736 160.472L333.428 160.433C333.404 160.433 333.381 160.443 333.365 160.459C333.348 160.476 333.339 160.499 333.339 160.522H333.338Z" fill="#303030"/>
</g>
<g opacity="0.2">
<path d="M333.268 162.423C333.268 162.447 333.278 162.47 333.294 162.486C333.311 162.503 333.334 162.513 333.357 162.513L338.164 162.556C338.188 162.556 338.21 162.547 338.227 162.53C338.244 162.513 338.253 162.49 338.253 162.467C338.253 162.443 338.243 162.421 338.226 162.405C338.21 162.388 338.188 162.378 338.164 162.378L333.357 162.334C333.333 162.334 333.311 162.344 333.294 162.36C333.277 162.377 333.268 162.4 333.268 162.423H333.268Z" fill="#303030"/>
</g>
<g opacity="0.2">
<path d="M333.181 164.48C333.181 164.503 333.19 164.526 333.207 164.543C333.224 164.56 333.246 164.569 333.27 164.569L337.104 164.604C337.128 164.604 337.151 164.594 337.167 164.578C337.184 164.561 337.194 164.538 337.194 164.515C337.194 164.491 337.184 164.468 337.167 164.452C337.151 164.435 337.128 164.426 337.104 164.426L333.27 164.391C333.246 164.391 333.224 164.4 333.207 164.417C333.19 164.434 333.181 164.457 333.181 164.48V164.48Z" fill="#303030"/>
</g>
<path d="M329.419 168.775L310.161 173.154H310.158C304.722 171.526 299.72 168.7 295.52 164.884C295.069 164.474 294.627 164.054 294.196 163.624C293.444 162.873 292.724 162.092 292.037 161.281L294.733 139.585C295.027 137.836 296.004 136.276 297.448 135.247C298.892 134.218 300.686 133.806 302.434 134.1C304.182 134.394 305.742 135.371 306.77 136.816C307.798 138.261 308.21 140.055 307.916 141.804L306.212 162.175L327.685 157.312L329.419 168.775Z" fill="#82D56E"/>
<path d="M301.868 162.975C301.857 162.976 301.845 162.975 301.834 162.971C301.823 162.967 301.812 162.962 301.804 162.954C301.795 162.946 301.787 162.937 301.782 162.927C301.777 162.916 301.774 162.905 301.773 162.893C301.772 162.881 301.773 162.869 301.777 162.858C301.781 162.847 301.786 162.837 301.794 162.828C301.802 162.819 301.811 162.812 301.822 162.806C301.832 162.801 301.843 162.798 301.855 162.797L306.16 161.876C306.172 161.875 306.184 161.875 306.195 161.878C306.206 161.881 306.217 161.886 306.227 161.893C306.236 161.9 306.244 161.908 306.25 161.918C306.256 161.928 306.26 161.94 306.262 161.951C306.264 161.963 306.263 161.975 306.26 161.986C306.257 161.997 306.252 162.008 306.245 162.017C306.238 162.027 306.23 162.035 306.22 162.041C306.209 162.047 306.198 162.051 306.187 162.052L301.88 162.973C301.876 162.974 301.872 162.975 301.868 162.975V162.975Z" fill="#303030"/>
<path d="M329.419 168.775C329.423 168.798 329.419 168.822 329.407 168.842C329.395 168.862 329.376 168.876 329.353 168.882L310.645 173.293C310.526 173.26 310.41 173.228 310.294 173.192L329.223 168.734L327.536 157.446L306.191 162.053C306.177 162.055 306.163 162.054 306.15 162.05C306.136 162.046 306.124 162.039 306.114 162.03C306.105 162.019 306.098 162.007 306.094 161.993C306.09 161.98 306.089 161.966 306.09 161.952L307.287 150.311C307.289 150.3 307.293 150.289 307.3 150.279C307.306 150.269 307.314 150.26 307.324 150.254C307.334 150.247 307.344 150.243 307.356 150.24C307.367 150.238 307.379 150.237 307.391 150.24C307.414 150.243 307.435 150.256 307.449 150.275C307.463 150.294 307.468 150.318 307.465 150.341L306.286 161.863L327.575 157.247C327.586 157.244 327.598 157.243 327.61 157.245C327.622 157.247 327.633 157.252 327.643 157.259C327.653 157.265 327.662 157.272 327.669 157.281C327.677 157.29 327.682 157.301 327.685 157.312L329.419 168.775Z" fill="#303030"/>
<path d="M184.643 218.587C203.906 218.587 219.522 202.964 219.522 183.693C219.522 164.421 203.906 148.798 184.643 148.798C165.379 148.798 149.763 164.421 149.763 183.693C149.763 202.964 165.379 218.587 184.643 218.587Z" fill="#F3F3F3"/>
<path opacity="0.09" d="M184.643 218.587C203.906 218.587 219.522 202.964 219.522 183.693C219.522 164.421 203.906 148.798 184.643 148.798C165.379 148.798 149.763 164.421 149.763 183.693C149.763 202.964 165.379 218.587 184.643 218.587Z" fill="#138EFF"/>
<path d="M175.037 163.9C175.037 163.9 175.415 174.41 182.427 174.893L183.614 161.034L175.037 163.9Z" fill="#303030"/>
<path d="M176.388 177.04C178.682 177.04 180.541 175.179 180.541 172.884C180.541 170.589 178.682 168.728 176.388 168.728C174.093 168.728 172.234 170.589 172.234 172.884C172.234 175.179 174.093 177.04 176.388 177.04Z" fill="#303030"/>
<path d="M192.64 179.771C192.603 179.766 192.193 186.58 184.279 185.986C178.801 185.577 176.848 179.762 176.723 179.762C177.349 179.658 177.966 179.508 178.57 179.314C179.433 178.85 180.5 178.367 180.778 176.692C180.939 175.726 180.667 170.784 180.75 169.806L189.16 171.684C189.041 173.748 188.22 178.533 191.102 179.38C191.581 179.52 192.098 179.649 192.64 179.771Z" fill="#E98862"/>
<path opacity="0.5" d="M189.277 177.424C189.145 176.999 189.061 176.561 189.024 176.117C188.932 175.106 188.95 174.088 189.079 173.08C187.37 172.85 185.76 172.144 184.432 171.043C184.275 171.62 183.417 174.141 183.655 174.689C184.104 175.728 186.216 177.424 189.277 177.424Z" fill="#303030"/>
<path d="M187.96 175.588C184.629 175.631 180.466 173.949 179.95 169.473L179.484 165.434C178.968 160.958 180.899 157.057 185.112 156.572C189.324 156.086 192.891 159.351 193.407 163.827L193.613 165.615C193.811 167.333 193.902 175.513 187.96 175.588Z" fill="#E98862"/>
<path d="M192.406 165.495C192.695 165.495 192.928 165.261 192.928 164.972C192.928 164.684 192.695 164.45 192.406 164.45C192.118 164.45 191.884 164.684 191.884 164.972C191.884 165.261 192.118 165.495 192.406 165.495Z" fill="#303030"/>
<path d="M187.068 166.106C187.356 166.106 187.59 165.872 187.59 165.583C187.59 165.294 187.356 165.061 187.068 165.061C186.779 165.061 186.546 165.294 186.546 165.583C186.546 165.872 186.779 166.106 187.068 166.106Z" fill="#303030"/>
<path opacity="0.5" d="M189.717 169.561H189.725C189.896 169.54 190.065 169.51 190.233 169.47C190.483 169.409 190.812 169.302 190.786 169.078C190.757 168.824 189.741 166.152 189.626 165.849C189.621 165.836 189.613 165.823 189.603 165.813C189.594 165.803 189.582 165.795 189.569 165.789C189.557 165.783 189.543 165.78 189.529 165.78C189.515 165.779 189.501 165.782 189.488 165.787C189.474 165.792 189.462 165.799 189.452 165.809C189.442 165.819 189.434 165.83 189.428 165.843C189.422 165.856 189.419 165.87 189.419 165.884C189.418 165.898 189.421 165.912 189.426 165.925C189.859 167.062 190.554 168.931 190.574 169.103C190.306 169.254 190.007 169.338 189.701 169.349C189.672 169.351 189.646 169.364 189.628 169.386C189.609 169.407 189.6 169.435 189.602 169.464C189.604 169.492 189.618 169.518 189.639 169.537C189.661 169.555 189.689 169.564 189.717 169.562V169.561Z" fill="#303030"/>
<path opacity="0.5" d="M188.964 171.424C189.648 171.385 190.314 171.185 190.907 170.842C190.93 170.827 190.947 170.804 190.954 170.778C190.961 170.751 190.957 170.723 190.944 170.699C190.931 170.675 190.909 170.657 190.882 170.649C190.856 170.64 190.828 170.642 190.803 170.654C189.522 171.364 188.297 171.405 187.261 170.773C187.24 170.76 187.218 170.748 187.196 170.736C187.17 170.726 187.142 170.727 187.116 170.737C187.091 170.748 187.07 170.768 187.059 170.793C187.048 170.818 187.047 170.847 187.056 170.873C187.066 170.898 187.085 170.92 187.109 170.932C187.117 170.936 187.131 170.945 187.15 170.956C187.694 171.289 188.326 171.452 188.964 171.424V171.424Z" fill="#303030"/>
<path d="M176.059 166.582L179.834 166.168C182.737 165.23 183.944 160.406 183.944 160.406C183.944 160.406 186.545 163.366 194.256 162.014C194.256 162.014 193.957 152.07 182.231 153.47C178.148 153.958 175.069 158.054 175.037 163.41C175.015 167.163 176.059 166.582 176.059 166.582Z" fill="#303030"/>
<path d="M180.369 170.807C179.088 170.955 177.893 169.704 177.745 168.423C177.597 167.143 178.554 166.317 179.834 166.169L180.592 166.951L181.469 170.68L180.369 170.807Z" fill="#E98862"/>
<path d="M190.559 163.669C190.937 163.46 191.363 163.356 191.795 163.368C192.008 163.373 192.219 163.409 192.421 163.477C192.622 163.543 192.813 163.634 192.991 163.748C193.009 163.76 193.022 163.777 193.027 163.798C193.032 163.818 193.029 163.84 193.018 163.858C193.008 163.877 192.991 163.89 192.97 163.896C192.95 163.902 192.928 163.9 192.91 163.89L192.904 163.887C192.736 163.787 192.555 163.709 192.367 163.653C192.18 163.598 191.987 163.571 191.792 163.573C191.405 163.575 191.025 163.679 190.691 163.876L190.683 163.881C190.67 163.89 190.654 163.896 190.638 163.899C190.622 163.902 190.605 163.902 190.589 163.898C190.573 163.894 190.558 163.887 190.544 163.878C190.531 163.868 190.519 163.856 190.511 163.842C190.502 163.828 190.497 163.812 190.494 163.796C190.492 163.779 190.493 163.763 190.497 163.747C190.501 163.731 190.508 163.716 190.519 163.703C190.529 163.69 190.541 163.679 190.556 163.671L190.559 163.669Z" fill="#303030"/>
<path d="M187.176 164.291C186.807 164.174 186.413 164.157 186.035 164.242C185.845 164.284 185.662 164.354 185.493 164.45C185.322 164.546 185.164 164.663 185.022 164.798L185.017 164.802C185.001 164.814 184.981 164.82 184.961 164.818C184.941 164.816 184.922 164.807 184.909 164.792C184.895 164.778 184.887 164.758 184.886 164.738C184.886 164.718 184.893 164.699 184.906 164.683C185.054 164.532 185.22 164.401 185.401 164.292C185.583 164.181 185.78 164.098 185.987 164.045C186.405 163.937 186.844 163.943 187.259 164.062C187.275 164.066 187.29 164.074 187.303 164.084C187.316 164.094 187.327 164.106 187.335 164.121C187.343 164.135 187.349 164.151 187.35 164.167C187.352 164.184 187.351 164.201 187.346 164.216C187.341 164.232 187.334 164.247 187.323 164.26C187.312 164.273 187.299 164.283 187.285 164.291C187.27 164.298 187.254 164.303 187.237 164.304C187.221 164.305 187.204 164.303 187.189 164.298H187.185L187.176 164.291Z" fill="#303030"/>
<path opacity="0.52" d="M189.035 172.436C189.159 172.431 189.282 172.415 189.404 172.389C189.431 172.383 189.454 172.366 189.469 172.342C189.483 172.319 189.488 172.29 189.483 172.263C189.477 172.236 189.461 172.212 189.438 172.196C189.415 172.181 189.387 172.175 189.359 172.18C189.17 172.235 188.971 172.249 188.776 172.221C188.581 172.194 188.394 172.125 188.228 172.019C188.206 172.001 188.177 171.992 188.149 171.995C188.121 171.998 188.095 172.012 188.077 172.034C188.059 172.056 188.051 172.084 188.053 172.112C188.056 172.141 188.07 172.167 188.092 172.185C188.368 172.375 188.701 172.464 189.035 172.436V172.436Z" fill="#303030"/>
<path opacity="0.1" d="M186.344 169.644C186.894 169.625 187.327 169.282 187.313 168.879C187.299 168.476 186.843 168.165 186.293 168.185C185.744 168.204 185.311 168.546 185.325 168.949C185.339 169.352 185.795 169.663 186.344 169.644Z" fill="#303030"/>
<path opacity="0.1" d="M192.222 168.532C192.237 168.934 192.693 169.244 193.243 169.226C193.338 169.223 193.432 169.21 193.524 169.187C193.589 168.714 193.629 168.257 193.651 167.833C193.503 167.782 193.347 167.76 193.191 167.767C192.643 167.785 192.209 168.127 192.222 168.532Z" fill="#303030"/>
<path d="M204.459 186.948C204.435 189.328 203.619 192.165 203.328 195.592C203.25 196.507 201.288 199.154 201.002 202.098C200.643 205.846 201.442 211.692 201.549 214.22C196.032 217.274 189.791 218.776 183.489 218.567C177.187 218.358 171.059 216.445 165.756 213.032C165.614 206.538 165.445 198.521 165.228 196.599C164.524 190.255 164.714 186.242 165.73 184.364C167.389 181.299 170.344 180.363 173.434 179.941C175.323 179.686 178.158 179.505 178.158 179.505C178.158 179.505 178.399 184.367 184.129 184.637C191.929 185.006 191.41 179.505 191.448 179.505C194.278 179.505 199.64 180.182 201.695 181.584C203.874 183.066 204.486 184.825 204.459 186.948Z" fill="#FBB034"/>
<path d="M177.511 190.65L166.929 213.752C162.866 211.353 159.331 208.155 156.537 204.351L165.364 185.079L177.511 190.65Z" fill="#FBB034"/>
<path d="M213.007 204.002C210.934 206.895 208.432 209.455 205.587 211.594C204.651 212.301 203.678 212.96 202.674 213.566L191.813 189.678L203.975 184.141L213.007 204.002Z" fill="#FBB034"/>
<path d="M167.182 214.052C167.162 214.051 167.143 214.048 167.124 214.04C167.106 214.032 167.09 214.021 167.076 214.007C167.063 213.994 167.052 213.977 167.044 213.959C167.037 213.941 167.033 213.922 167.033 213.902C167.034 213.883 167.038 213.863 167.045 213.845L172.863 200.011C172.878 199.975 172.907 199.946 172.944 199.931C172.98 199.916 173.021 199.917 173.057 199.932C173.094 199.947 173.122 199.976 173.137 200.013C173.152 200.05 173.152 200.09 173.137 200.127L167.319 213.96C167.308 213.987 167.289 214.01 167.264 214.027C167.24 214.043 167.211 214.052 167.182 214.052Z" fill="#303030"/>
<path d="M201.415 214.209H201.409C201.389 214.21 201.37 214.207 201.352 214.2C201.333 214.193 201.316 214.183 201.302 214.17C201.288 214.157 201.276 214.141 201.268 214.123C201.26 214.106 201.255 214.086 201.254 214.067L200.605 199.918C200.605 199.879 200.619 199.841 200.646 199.812C200.672 199.783 200.708 199.765 200.747 199.762C200.766 199.761 200.786 199.764 200.804 199.771C200.823 199.778 200.839 199.788 200.854 199.801C200.868 199.814 200.88 199.83 200.888 199.848C200.897 199.865 200.901 199.884 200.902 199.904L201.551 214.053C201.552 214.092 201.539 214.129 201.514 214.158C201.489 214.187 201.454 214.205 201.415 214.209Z" fill="#303030"/>
<path d="M257.232 81.9005C277.289 81.9005 293.547 65.6346 293.547 45.5695C293.547 25.5045 277.289 9.23851 257.232 9.23851C237.176 9.23851 220.917 25.5045 220.917 45.5695C220.917 65.6346 237.176 81.9005 257.232 81.9005Z" fill="#F3F3F3"/>
<path opacity="0.09" d="M257.232 81.9005C277.289 81.9005 293.547 65.6346 293.547 45.5695C293.547 25.5045 277.289 9.23851 257.232 9.23851C237.176 9.23851 220.917 25.5045 220.917 45.5695C220.917 65.6346 237.176 81.9005 257.232 81.9005Z" fill="#138EFF"/>
<path d="M264.254 23.8138C264.254 23.8138 266.554 21.3204 266.376 16.5713C266.239 12.8942 263.354 15.815 263.354 15.815C263.354 15.815 263.229 13.1684 261.394 13.7654C259.559 14.3625 258.995 17.2688 258.995 17.2688" fill="#303030"/>
<path d="M251.719 15.8299C251.719 15.8299 242.561 18.5226 248.228 30.5724L249.064 30.478L250.762 30.2867" fill="#303030"/>
<path d="M264.698 43.0717C264.656 43.0663 264.193 50.7532 255.267 50.0819C249.088 49.6188 246.884 43.0598 246.743 43.0598C247.409 42.9181 248.232 42.7033 248.559 42.6294C249.273 42.4638 249.919 42.0849 250.411 41.5431C250.904 41.0013 251.22 40.3222 251.318 39.5963C251.498 38.5067 251.192 32.9324 251.286 31.8301L260.771 33.948C260.639 36.2765 259.711 41.6741 262.962 42.6294C263.504 42.7877 264.087 42.9333 264.698 43.0717Z" fill="#E98862"/>
<path opacity="0.52" d="M260.905 40.4238C260.756 39.9448 260.66 39.4509 260.619 38.9511C260.515 37.8104 260.536 36.6618 260.681 35.5256C258.753 35.2653 256.937 34.4691 255.439 33.2277C255.263 33.8785 254.294 36.7221 254.562 37.3405C255.069 38.5097 257.451 40.4238 260.905 40.4238Z" fill="#303030"/>
<path d="M259.356 37.9765C255.615 38.313 250.786 36.7836 249.818 31.7944L248.944 27.2928C247.975 22.3024 249.81 17.7503 254.505 16.8383C259.201 15.9261 263.495 19.2889 264.464 24.2781L264.85 26.2709C264.971 26.9575 265.045 27.6515 265.071 28.3482C265.155 30.1898 265.275 32.9888 264.39 35.058C263.555 37.012 261.747 37.7617 259.356 37.9765Z" fill="#E98862"/>
<path opacity="0.5" d="M259.922 33.0441C260.607 33.0312 261.28 32.8574 261.885 32.5367C261.898 32.5308 261.91 32.5222 261.92 32.5116C261.93 32.5009 261.937 32.4884 261.942 32.4747C261.947 32.4611 261.949 32.4466 261.948 32.4322C261.947 32.4178 261.943 32.4037 261.937 32.3908C261.93 32.3778 261.921 32.3664 261.91 32.3571C261.899 32.3477 261.886 32.3408 261.872 32.3365C261.859 32.3323 261.844 32.3309 261.83 32.3324C261.815 32.334 261.801 32.3384 261.789 32.3454C260.482 33.0052 259.256 32.9989 258.245 32.3294C258.224 32.3153 258.203 32.3022 258.182 32.2902C258.169 32.284 258.155 32.2803 258.141 32.2794C258.127 32.2785 258.113 32.2804 258.1 32.2849C258.087 32.2895 258.074 32.2966 258.064 32.3059C258.053 32.3152 258.045 32.3264 258.038 32.3391C258.032 32.3517 258.028 32.3654 258.028 32.3794C258.027 32.3935 258.029 32.4075 258.033 32.4208C258.038 32.4342 258.045 32.4464 258.054 32.457C258.063 32.4676 258.075 32.4762 258.087 32.4824C258.095 32.4868 258.108 32.4958 258.127 32.5079C258.658 32.8614 259.283 33.0481 259.922 33.0441V33.0441Z" fill="#303030"/>
<path opacity="0.52" d="M259.955 34.0591C260.079 34.0587 260.202 34.0478 260.324 34.0264C260.338 34.0241 260.351 34.019 260.363 34.0115C260.375 34.004 260.386 33.9943 260.394 33.9828C260.402 33.9714 260.408 33.9584 260.411 33.9447C260.414 33.931 260.414 33.9168 260.412 33.903C260.409 33.8892 260.404 33.8759 260.397 33.864C260.389 33.8521 260.38 33.8418 260.368 33.8337C260.357 33.8256 260.344 33.8198 260.33 33.8167C260.316 33.8136 260.302 33.8132 260.288 33.8155C260.097 33.8634 259.898 33.8701 259.704 33.8349C259.51 33.7998 259.326 33.7237 259.163 33.6118C259.142 33.5937 259.114 33.5847 259.087 33.5868C259.059 33.5888 259.033 33.6017 259.014 33.6227C258.996 33.6437 258.986 33.6711 258.988 33.699C258.989 33.727 259.002 33.7532 259.022 33.7722C259.29 33.9729 259.62 34.0743 259.955 34.0591V34.0591Z" fill="#303030"/>
<path d="M263.34 27.528C263.665 27.528 263.929 27.2642 263.929 26.9387C263.929 26.6132 263.665 26.3494 263.34 26.3494C263.014 26.3494 262.751 26.6132 262.751 26.9387C262.751 27.2642 263.014 27.528 263.34 27.528Z" fill="#303030"/>
<path d="M257.612 28.1979C257.937 28.1979 258.201 27.934 258.201 27.6085C258.201 27.283 257.937 27.0192 257.612 27.0192C257.286 27.0192 257.023 27.283 257.023 27.6085C257.023 27.934 257.286 28.1979 257.612 28.1979Z" fill="#303030"/>
<path d="M250.404 33.2577C248.977 33.5348 247.524 32.2323 247.247 30.8047C246.97 29.3771 247.974 28.3654 249.401 28.0882L250.321 28.9018L251.63 33.0194L250.404 33.2577Z" fill="#E98862"/>
<path d="M251.411 30.7007C251.411 30.7007 250.614 23.5376 252.679 22.7124C254.055 22.1625 257.886 23.5622 260.983 22.3693C262.338 21.8471 263.734 21.9534 263.989 22.5924C264.09 22.8451 264.282 18.9126 261.566 16.4463C259.403 14.4828 253.56 14.8758 251.089 16.0954C244.25 19.4725 249.162 28.4524 249.162 28.4524L249.925 30.8335L251.411 30.7007Z" fill="#303030"/>
<g opacity="0.52">
<path d="M260.8 31.2702H260.809C261.269 31.181 262.031 30.9829 261.967 30.6386C261.912 30.3532 260.542 27.4232 260.386 27.0902C260.38 27.076 260.37 27.0633 260.359 27.0527C260.347 27.0422 260.334 27.034 260.319 27.0287C260.304 27.0233 260.289 27.021 260.273 27.0217C260.257 27.0224 260.242 27.0262 260.228 27.0328C260.214 27.0395 260.201 27.0489 260.19 27.0604C260.18 27.072 260.172 27.0856 260.166 27.1003C260.161 27.115 260.159 27.1306 260.159 27.1463C260.16 27.1619 260.164 27.1773 260.171 27.1915C260.778 28.489 261.696 30.4886 261.733 30.6832C261.703 30.7723 261.242 30.9443 260.766 31.0355C260.735 31.0402 260.706 31.0572 260.687 31.0828C260.668 31.1084 260.66 31.1405 260.665 31.172C260.67 31.2035 260.687 31.2319 260.712 31.2508C260.738 31.2698 260.77 31.2778 260.802 31.2731L260.8 31.2702Z" fill="#303030"/>
</g>
<path d="M261.125 24.0906C261.586 23.8698 262.097 23.7774 262.606 23.8233C262.855 23.8443 263.1 23.9026 263.332 23.9962C263.562 24.0874 263.779 24.2071 263.978 24.3526C264.015 24.3782 264.04 24.4172 264.049 24.4613C264.058 24.5054 264.05 24.5513 264.025 24.5892C264.001 24.6271 263.963 24.6541 263.919 24.6646C263.876 24.675 263.83 24.6681 263.791 24.6452L263.777 24.6405C263.597 24.525 263.402 24.4327 263.198 24.3657C262.998 24.2988 262.789 24.2626 262.578 24.2585C262.161 24.2468 261.749 24.3455 261.383 24.5445L261.368 24.5531C261.339 24.5701 261.306 24.5811 261.272 24.5854C261.238 24.5897 261.203 24.5873 261.17 24.5783C261.137 24.5692 261.106 24.5538 261.079 24.5328C261.052 24.5118 261.029 24.4856 261.012 24.4558C260.995 24.4261 260.984 24.3932 260.98 24.3592C260.976 24.3252 260.978 24.2906 260.987 24.2575C260.996 24.2245 261.011 24.1935 261.032 24.1664C261.053 24.1392 261.08 24.1165 261.109 24.0995L261.125 24.0906Z" fill="#303030"/>
<path d="M257.748 25.0038C257.347 24.8915 256.923 24.8871 256.52 24.991C256.315 25.042 256.119 25.1238 255.939 25.2337C255.755 25.3443 255.585 25.4775 255.434 25.6302L255.425 25.6397C255.392 25.6712 255.349 25.6888 255.303 25.6887C255.258 25.6885 255.215 25.6707 255.182 25.6389C255.15 25.6072 255.131 25.5641 255.13 25.5188C255.129 25.4735 255.146 25.4296 255.177 25.3965C255.338 25.2098 255.523 25.0445 255.726 24.9043C255.932 24.7613 256.158 24.6498 256.396 24.5736C256.635 24.495 256.883 24.4494 257.134 24.4382C257.391 24.424 257.648 24.4465 257.899 24.5047C257.967 24.5205 258.025 24.5624 258.061 24.6212C258.098 24.68 258.11 24.751 258.094 24.8184C258.078 24.8858 258.036 24.9443 257.977 24.9808C257.919 25.0173 257.848 25.029 257.78 25.0133L257.765 25.0091L257.748 25.0038Z" fill="#303030"/>
<path d="M259.555 19.3449C260.573 18.9319 260.906 17.3813 260.299 15.8814C259.691 14.3815 258.373 13.5004 257.354 13.9133C256.336 14.3263 256.003 15.877 256.61 17.3768C257.218 18.8767 258.536 19.7579 259.555 19.3449Z" fill="#303030"/>
<path d="M277.035 51.0149C277.07 53.4774 276.108 56.2458 275.788 59.9945C275.722 60.7549 275.568 62.4302 275.363 64.6135C275.028 68.2285 274.552 73.2277 274.137 77.7339C268.192 80.8554 261.5 82.2695 254.801 81.8197C248.103 81.3698 241.66 79.0736 236.185 75.1852C236.055 75.0872 235.924 74.9922 235.793 74.9001C235.446 69.8058 235.036 64.459 234.662 61.0817C233.959 54.7754 233 51.6357 233.537 49.5148C233.58 49.3342 233.638 49.1574 233.709 48.9861C235.256 45.2315 240.182 43.5561 243.519 43.1046C245.556 42.8284 248.62 42.6294 248.62 42.6294C248.62 42.6294 248.878 47.8811 255.063 48.1722C263.484 48.5702 262.922 42.6294 262.964 42.6294C264.327 42.6294 271.753 43.6215 273.608 44.8334C273.919 45.0355 274.217 45.2577 274.499 45.4988C275.305 46.1716 275.951 47.0159 276.39 47.9701C276.829 48.9244 277.049 49.9646 277.035 51.0149Z" fill="#303030"/>
<path d="M246.031 54.823L236.185 75.1852C236.055 75.0872 235.924 74.9922 235.793 74.9001C231.977 72.1002 228.74 68.5855 226.263 64.5511L233.537 49.5148L233.825 48.9178L246.031 54.823Z" fill="#303030"/>
<path d="M245.081 57.1666L236.126 75.1407C236.067 75.0961 236.01 75.0546 235.951 75.0159L244.894 57.0746C244.907 57.0496 244.929 57.0306 244.955 57.0218C244.982 57.0129 245.011 57.0148 245.036 57.027C245.061 57.0396 245.079 57.0614 245.087 57.0876C245.096 57.1138 245.093 57.1422 245.081 57.1666V57.1666Z" fill="#F3F3F3"/>
<path d="M290.485 60.1965C288.7 64.2433 286.194 67.9313 283.089 71.0801L275.363 64.6135L265.55 56.3973L274.499 45.4988L274.526 45.4661L290.485 60.1965Z" fill="#303030"/>
<path d="M275.482 64.6928C275.507 64.6916 275.531 64.6812 275.549 64.6637C275.567 64.6461 275.579 64.6226 275.581 64.5975L276.091 58.618C276.093 58.5904 276.084 58.563 276.067 58.5417C276.049 58.5205 276.023 58.5072 275.996 58.5048C275.968 58.5028 275.941 58.5117 275.92 58.5294C275.899 58.5472 275.886 58.5724 275.883 58.5999L275.373 64.5796C275.371 64.6072 275.379 64.6346 275.397 64.6557C275.415 64.6769 275.441 64.6901 275.468 64.6925L275.482 64.6928Z" fill="#F3F3F3"/>
<path d="M428.231 239.224C447.36 239.224 462.868 223.71 462.868 204.572C462.868 185.434 447.36 169.92 428.231 169.92C409.101 169.92 393.594 185.434 393.594 204.572C393.594 223.71 409.101 239.224 428.231 239.224Z" fill="#F3F3F3"/>
<path opacity="0.09" d="M393.593 204.571C393.593 211.424 395.625 218.124 399.43 223.822C403.236 229.521 408.646 233.962 414.975 236.585C421.304 239.208 428.268 239.894 434.987 238.557C441.705 237.22 447.877 233.92 452.721 229.074C457.565 224.227 460.864 218.053 462.2 211.331C463.537 204.61 462.851 197.642 460.229 191.311C457.608 184.979 453.168 179.567 447.473 175.759C441.777 171.952 435.08 169.92 428.23 169.92C423.676 169.903 419.165 170.788 414.955 172.523C410.745 174.259 406.92 176.81 403.701 180.031C400.481 183.252 397.93 187.079 396.196 191.291C394.461 195.502 393.577 200.016 393.593 204.571V204.571Z" fill="#138EFF"/>
<path d="M443.947 185.45C443.394 191.866 443.907 194.041 446.57 197.717C448.816 200.817 436.036 198.182 430.382 197.175L435.371 182.585C435.371 182.585 444.141 183.197 443.947 185.45Z" fill="#303030"/>
<path d="M424.439 182.78C422.77 189 422.958 190.924 419.693 194.19C416.987 196.898 427.533 197.448 433.191 198.432L433.477 183.015C433.477 183.015 425.025 180.596 424.439 182.78Z" fill="#303030"/>
<path d="M425.001 200.871C425.038 200.865 425.453 207.744 433.44 207.144C438.969 206.73 440.941 200.861 441.068 200.861C440.436 200.756 439.812 200.604 439.203 200.408C438.332 199.94 437.255 199.453 436.974 197.762C436.812 196.786 437.086 191.799 437.002 190.811L428.514 192.706C428.633 194.79 429.464 199.62 426.555 200.474C426.07 200.617 425.548 200.747 425.001 200.871Z" fill="#E98862"/>
<path opacity="0.5" d="M428.395 198.502C428.528 198.073 428.614 197.631 428.651 197.184C428.744 196.163 428.726 195.135 428.595 194.118C430.321 193.886 431.946 193.173 433.287 192.062C433.444 192.645 434.311 195.189 434.071 195.742C433.617 196.789 431.486 198.502 428.395 198.502Z" fill="#303030"/>
<path d="M429.493 196.359C432.839 196.683 437.169 195.343 438.066 190.885L438.875 186.862C439.772 182.404 438.159 178.318 433.963 177.474C429.767 176.629 425.904 179.612 425.007 184.07L424.648 185.852C424.304 187.562 423.522 195.781 429.493 196.359Z" fill="#E98862"/>
<path d="M442.925 188.132L439.151 187.718C431.765 186.36 429.956 180.397 429.956 180.397C429.956 180.397 426.858 184.535 424.227 183.585C424.227 183.585 425.075 173.607 436.753 175.361C441.342 176.049 443.947 179.855 443.947 184.959C443.947 188.712 442.925 188.132 442.925 188.132Z" fill="#303030"/>
<path opacity="0.1" d="M432.703 189.902C432.751 189.498 432.343 189.117 431.793 189.051C431.242 188.986 430.757 189.26 430.708 189.664C430.66 190.068 431.068 190.449 431.618 190.515C432.169 190.581 432.654 190.306 432.703 189.902Z" fill="#303030"/>
<path opacity="0.1" d="M425.803 188.901C425.753 189.304 425.268 189.578 424.717 189.513C424.622 189.502 424.528 189.481 424.437 189.45C424.412 188.969 424.41 188.506 424.424 188.077C424.577 188.039 424.736 188.03 424.892 188.05C425.442 188.115 425.849 188.496 425.803 188.901Z" fill="#303030"/>
<path opacity="0.5" d="M428.235 190.148H428.226C428.056 190.113 427.889 190.068 427.724 190.014C427.477 189.931 427.155 189.796 427.2 189.573C427.251 189.319 428.498 186.718 428.64 186.423C428.646 186.409 428.654 186.398 428.665 186.388C428.675 186.378 428.688 186.37 428.701 186.365C428.715 186.36 428.729 186.358 428.744 186.359C428.758 186.359 428.772 186.363 428.785 186.369C428.798 186.375 428.81 186.384 428.819 186.395C428.829 186.406 428.836 186.419 428.841 186.432C428.845 186.446 428.847 186.461 428.846 186.475C428.845 186.489 428.841 186.503 428.834 186.516C428.302 187.624 427.446 189.445 427.411 189.616C427.667 189.79 427.961 189.9 428.269 189.936C428.296 189.942 428.32 189.958 428.336 189.981C428.351 190.004 428.358 190.032 428.353 190.059C428.349 190.087 428.334 190.111 428.312 190.128C428.29 190.145 428.262 190.153 428.235 190.15V190.148Z" fill="#303030"/>
<path d="M437.532 192.191C438.807 192.448 440.115 191.291 440.372 190.015C440.629 188.74 439.737 187.828 438.461 187.571L437.632 188.294L436.436 191.97L437.532 192.191Z" fill="#E98862"/>
<path d="M427.736 184.347C427.578 184.236 427.406 184.146 427.225 184.08C427.042 184.011 426.849 183.968 426.654 183.951C426.458 183.933 426.261 183.944 426.069 183.984C425.875 184.023 425.687 184.087 425.509 184.173L425.503 184.176C425.484 184.183 425.463 184.182 425.444 184.174C425.425 184.167 425.41 184.152 425.401 184.133C425.392 184.115 425.391 184.094 425.396 184.074C425.402 184.055 425.415 184.038 425.433 184.027C425.622 183.928 425.822 183.852 426.029 183.802C426.239 183.752 426.454 183.733 426.669 183.746C427.104 183.77 427.524 183.911 427.886 184.153C427.912 184.172 427.93 184.2 427.936 184.232C427.941 184.264 427.934 184.296 427.916 184.323C427.898 184.35 427.87 184.369 427.838 184.375C427.807 184.382 427.774 184.375 427.747 184.358L427.744 184.356L427.736 184.347Z" fill="#303030"/>
<path d="M431.172 184.823C431.599 184.737 432.041 184.769 432.452 184.913C432.655 184.983 432.847 185.083 433.021 185.21C433.193 185.335 433.35 185.482 433.486 185.646C433.501 185.662 433.508 185.683 433.507 185.705C433.506 185.727 433.497 185.748 433.48 185.763C433.464 185.777 433.443 185.785 433.421 185.784C433.399 185.783 433.379 185.774 433.364 185.757L433.359 185.753C433.228 185.605 433.078 185.474 432.914 185.363C432.752 185.252 432.574 185.167 432.386 185.109C432.013 184.992 431.616 184.976 431.235 185.062L431.225 185.065C431.193 185.072 431.16 185.067 431.131 185.05C431.103 185.033 431.083 185.006 431.075 184.974C431.067 184.942 431.072 184.908 431.089 184.88C431.106 184.852 431.134 184.831 431.166 184.823L431.172 184.823Z" fill="#303030"/>
<path d="M412.137 235.261C410.775 234.667 409.757 234.031 407.431 232.279C405.754 231.019 404.194 229.609 402.773 228.065L414.712 205.337L415.231 204.349L425.999 210.013L416.659 227.797L416.616 227.876L416.697 228.192" fill="#FF5B5B"/>
<path d="M451.842 216.978C451.528 220.348 451.461 225.59 451.482 230.25C446.981 234.335 441.483 237.163 435.543 238.448C429.602 239.733 423.428 239.431 417.642 237.572C416.934 230.544 415.88 220.216 415.287 213.857C414.685 207.269 412.916 205.094 417.744 201.939C420.405 200.584 424.622 200.465 426.518 200.465C425.874 206.709 439.027 207.478 439.354 200.465C449.192 201.386 453.746 201.614 451.842 216.978Z" fill="#FF5B5B"/>
<path d="M427.113 191.027C428.2 191.58 429.44 191.755 430.638 191.524C430.68 191.516 430.723 191.52 430.762 191.536C430.801 191.551 430.835 191.578 430.86 191.612C430.885 191.646 430.899 191.687 430.902 191.729C430.904 191.772 430.894 191.814 430.874 191.851C430.518 192.48 429.67 193.556 428.217 193.118C427.279 192.834 426.924 191.87 426.792 191.272C426.782 191.23 426.785 191.187 426.8 191.147C426.814 191.107 426.84 191.072 426.874 191.046C426.907 191.021 426.948 191.005 426.99 191.002C427.033 190.998 427.075 191.007 427.113 191.027V191.027Z" fill="#F3F3F3"/>
<path d="M427.045 186.189C427.335 186.189 427.57 185.954 427.57 185.664C427.57 185.374 427.335 185.138 427.045 185.138C426.755 185.138 426.519 185.374 426.519 185.664C426.519 185.954 426.755 186.189 427.045 186.189Z" fill="#303030"/>
<path d="M432.093 187.073C432.383 187.073 432.619 186.838 432.619 186.548C432.619 186.258 432.383 186.022 432.093 186.022C431.803 186.022 431.568 186.258 431.568 186.548C431.568 186.838 431.803 187.073 432.093 187.073Z" fill="#303030"/>
<path d="M416.45 225.201H416.46C416.481 225.198 416.501 225.186 416.514 225.169C416.526 225.152 416.532 225.13 416.529 225.109L415.6 215.748C415.599 215.738 415.596 215.727 415.59 215.718C415.585 215.709 415.578 215.701 415.569 215.694C415.561 215.688 415.551 215.683 415.541 215.68C415.53 215.678 415.52 215.677 415.509 215.679C415.498 215.68 415.488 215.684 415.479 215.689C415.47 215.695 415.462 215.702 415.455 215.71C415.449 215.719 415.444 215.729 415.442 215.739C415.439 215.749 415.438 215.76 415.44 215.77L416.368 225.131C416.371 225.151 416.381 225.169 416.396 225.181C416.411 225.194 416.43 225.201 416.45 225.201V225.201Z" fill="#303030"/>
<path d="M415.236 218.072H405.756V229.704H415.236V218.072Z" fill="#F3F3F3"/>
<path d="M411.354 223.888C411.354 223.12 411.582 222.369 412.008 221.73C412.435 221.091 413.042 220.594 413.751 220.3C414.46 220.006 415.241 219.929 415.994 220.079C416.747 220.229 417.439 220.599 417.982 221.143C418.525 221.686 418.894 222.378 419.044 223.131C419.194 223.885 419.117 224.666 418.823 225.375C418.529 226.085 418.031 226.692 417.393 227.118C416.754 227.545 416.004 227.773 415.236 227.773C414.206 227.772 413.219 227.362 412.492 226.634C411.764 225.905 411.355 224.918 411.354 223.888V223.888ZM412.944 223.888C412.944 224.341 413.078 224.785 413.33 225.162C413.582 225.539 413.94 225.833 414.359 226.006C414.777 226.18 415.238 226.225 415.683 226.137C416.128 226.048 416.536 225.83 416.857 225.509C417.177 225.189 417.395 224.78 417.484 224.335C417.572 223.89 417.527 223.429 417.353 223.01C417.18 222.591 416.886 222.233 416.509 221.981C416.132 221.729 415.689 221.595 415.236 221.595C414.628 221.595 414.045 221.837 413.616 222.267C413.186 222.697 412.944 223.28 412.944 223.888V223.888Z" fill="#F3F3F3"/>
<path d="M415.16 225.327C415.192 225.13 415.292 224.951 415.443 224.821C415.594 224.69 415.786 224.617 415.985 224.614C415.979 224.606 415.975 224.597 415.973 224.588L415.691 224.527C415.494 224.488 415.317 224.382 415.189 224.227C415.061 224.073 414.991 223.878 414.99 223.678C414.991 223.552 415.021 223.428 415.077 223.315C415.132 223.202 415.212 223.103 415.311 223.024C415.409 222.946 415.524 222.891 415.646 222.862C415.769 222.833 415.896 222.832 416.019 222.859L416.685 223.003C416.685 223 416.685 222.998 416.685 222.995C416.686 222.99 416.688 222.985 416.691 222.98C416.517 222.898 416.377 222.76 416.291 222.588C416.206 222.416 416.182 222.221 416.222 222.033C416.295 221.54 416.886 221.378 417.319 221.472L419.044 221.781L418.462 221.394C418.278 221.267 418.15 221.075 418.102 220.856C418.055 220.638 418.092 220.41 418.206 220.218C418.269 220.12 418.35 220.037 418.446 219.973C418.542 219.908 418.65 219.864 418.763 219.842C418.876 219.821 418.993 219.823 419.106 219.848C419.218 219.873 419.325 219.921 419.418 219.989L426.371 227.949L424.828 227.249C424.348 227.954 423.67 228.499 422.878 228.816C422.087 229.133 421.219 229.206 420.386 229.025L416.616 228.203C416.419 228.164 416.241 228.059 416.113 227.904C415.986 227.749 415.915 227.555 415.914 227.354C415.917 227.173 415.977 226.998 416.087 226.853C416.196 226.709 416.349 226.604 416.522 226.552C416.517 226.54 416.515 226.526 416.517 226.512C416.519 226.499 416.524 226.487 416.532 226.476C416.54 226.466 416.55 226.458 416.562 226.452L415.866 226.302C415.647 226.259 415.452 226.135 415.321 225.954C415.19 225.773 415.133 225.549 415.16 225.327V225.327Z" fill="#E98862"/>
<path opacity="0.2" d="M417.944 223.283C417.963 223.279 417.979 223.269 417.99 223.255C418.002 223.24 418.008 223.222 418.008 223.203C418.007 223.185 418 223.167 417.988 223.153C417.976 223.139 417.96 223.129 417.942 223.126L416.777 222.929C416.766 222.927 416.755 222.927 416.745 222.929C416.734 222.931 416.724 222.935 416.715 222.941C416.706 222.947 416.699 222.955 416.693 222.964C416.687 222.973 416.683 222.983 416.682 222.994C416.68 223.004 416.68 223.015 416.683 223.026C416.685 223.036 416.69 223.046 416.696 223.055C416.702 223.063 416.711 223.071 416.72 223.076C416.729 223.081 416.739 223.085 416.75 223.086L417.915 223.284C417.925 223.285 417.935 223.285 417.944 223.283Z" fill="#303030"/>
<path opacity="0.2" d="M417.663 224.931C417.682 224.927 417.698 224.917 417.709 224.903C417.721 224.888 417.727 224.87 417.727 224.852C417.726 224.833 417.72 224.815 417.708 224.801C417.696 224.787 417.679 224.778 417.661 224.774L416.065 224.491C416.055 224.489 416.044 224.489 416.033 224.491C416.023 224.492 416.012 224.497 416.003 224.503C415.994 224.509 415.987 224.516 415.981 224.525C415.975 224.534 415.971 224.545 415.969 224.555C415.967 224.566 415.967 224.577 415.97 224.587C415.972 224.598 415.977 224.608 415.983 224.617C415.99 224.625 415.998 224.633 416.007 224.638C416.016 224.644 416.027 224.647 416.037 224.649L417.633 224.932C417.643 224.934 417.653 224.933 417.663 224.931V224.931Z" fill="#303030"/>
<path opacity="0.2" d="M417.37 226.718C417.389 226.714 417.405 226.704 417.417 226.69C417.428 226.675 417.434 226.657 417.434 226.638C417.433 226.619 417.426 226.601 417.414 226.587C417.401 226.573 417.384 226.564 417.366 226.561L416.609 226.445C416.589 226.443 416.568 226.449 416.552 226.462C416.536 226.474 416.526 226.493 416.523 226.513C416.519 226.533 416.524 226.554 416.536 226.57C416.547 226.587 416.565 226.599 416.585 226.603L417.342 226.719C417.351 226.721 417.361 226.72 417.37 226.718V226.718Z" fill="#303030"/>
<path d="M456.672 224.343C452.406 230.481 446.275 235.078 439.19 237.453L439.188 237.45C437.614 237.142 422.602 231.213 420.617 230.823L422.79 220.682C428.368 221.793 438.544 226.075 444.154 227.189L440.196 209.234C440.053 208.441 440.068 207.627 440.241 206.84C440.415 206.053 440.742 205.308 441.206 204.649C441.669 203.989 442.258 203.428 442.94 202.999C443.621 202.569 444.381 202.279 445.176 202.145C445.97 202.011 446.783 202.037 447.568 202.22C448.353 202.403 449.093 202.74 449.746 203.212C450.4 203.683 450.953 204.28 451.374 204.967C451.795 205.654 452.076 206.418 452.2 207.214L456.672 224.343Z" fill="#FF5B5B"/>
<path d="M448.407 228.511C448.427 228.511 448.447 228.503 448.461 228.489C448.476 228.475 448.485 228.456 448.487 228.436C448.488 228.416 448.482 228.396 448.47 228.38C448.457 228.364 448.439 228.353 448.419 228.35L444.201 226.918C444.19 226.916 444.179 226.917 444.169 226.919C444.159 226.922 444.149 226.926 444.14 226.933C444.132 226.939 444.124 226.947 444.119 226.956C444.113 226.965 444.11 226.976 444.108 226.986C444.105 227.008 444.111 227.029 444.123 227.046C444.136 227.064 444.155 227.075 444.177 227.078L448.395 228.51C448.399 228.511 448.403 228.511 448.407 228.511V228.511Z" fill="#303030"/>
<path d="M444.266 226.987C444.268 227.012 444.26 227.037 444.244 227.057C444.235 227.066 444.223 227.072 444.211 227.076C444.199 227.08 444.186 227.081 444.173 227.079L422.925 220.804L420.795 230.785L439.093 237.483C439.036 237.502 438.977 237.52 438.92 237.539C438.879 237.553 438.839 237.566 438.795 237.577L420.676 230.921C420.656 230.916 420.638 230.903 420.627 230.885C420.616 230.866 420.612 230.845 420.617 230.824L422.79 220.683C422.792 220.673 422.797 220.663 422.803 220.655C422.81 220.647 422.818 220.64 422.827 220.635C422.836 220.628 422.846 220.624 422.857 220.622C422.868 220.62 422.879 220.621 422.89 220.624L444.087 226.906L441.687 217.008C441.685 216.987 441.69 216.965 441.703 216.948C441.715 216.931 441.734 216.919 441.755 216.916C441.766 216.914 441.776 216.914 441.787 216.916C441.797 216.918 441.807 216.922 441.816 216.928C441.825 216.934 441.832 216.942 441.838 216.951C441.844 216.96 441.848 216.97 441.85 216.981L444.266 226.987Z" fill="#303030"/>
</g>
<defs>
<linearGradient id="paint0_linear_107_13" x1="280.161" y1="1" x2="280.161" y2="404.725" gradientUnits="userSpaceOnUse">
<stop stop-color="#FBB034"/>
<stop offset="1" stop-color="#FBB034" stop-opacity="0"/>
</linearGradient>
</defs>
</svg>
