<svg width="129" height="128" viewBox="0 0 129 128" fill="none" xmlns="http://www.w3.org/2000/svg">
<ellipse cx="64.5" cy="64.028" rx="63.6834" ry="63.6396" fill="#FBB034"/>
<path fill-rule="evenodd" clip-rule="evenodd" d="M88.2083 25.8947C73.5964 30.7319 72.485 30.9338 71.9419 28.8503C71.0068 25.2651 67.4072 26.1993 56.3949 32.8859C29.7619 49.0571 21.1379 59.225 21.1141 74.4823C21.0915 88.4409 31.2901 102.309 44.3869 106.127C58.9368 110.369 71.7787 105.717 82.4753 92.3308C90.163 82.71 102.105 62.9034 102.105 59.7734C102.105 58.4963 101.103 57.1893 99.8768 56.8679C97.803 56.3231 98.0127 55.1679 102.929 40.1137C108.072 24.3619 108.553 20.607 105.418 20.6727C104.58 20.6895 96.8346 23.0394 88.2083 25.8947ZM59.4848 54.144C74.9305 58.4461 80.4455 77.156 69.8383 89.2724C60.4198 100.032 43.9855 99.1046 35.8678 87.3561C27.8632 75.7713 33.3461 59.4855 46.88 54.647C52.513 52.6328 53.8649 52.579 59.4848 54.144ZM43.8175 67.0848C41.9498 70.5852 42.2285 71.7464 45.4458 73.861C49.7435 76.6853 53.5362 74.3795 53.0394 69.2448C52.7202 65.9367 52.1782 65.3931 48.8799 65.073C46.0724 64.7994 44.7585 65.3215 43.8175 67.0848ZM54.5903 82.0075C53.5612 83.2524 53.6803 84.0086 55.0906 85.183C57.3669 87.0778 59.9076 85.0803 58.8237 82.2465C57.941 79.9408 56.3747 79.8523 54.5903 82.0075Z" fill="#303030"/>
</svg>
